<svg xmlns="http://www.w3.org/2000/svg" width="161.827" height="23.152" viewBox="0 0 161.827 23.152">
  <path id="LOGO" d="M23.211,11.174q.063-2.814-.031-8.943-.094-6.1,0-9.068A2.078,2.078,0,0,0,22.585-8.4a2.142,2.142,0,0,0-1.532-.688,2.049,2.049,0,0,0-1.939,1.094A86.013,86.013,0,0,0,12.235.448L5.294-8.276A2.047,2.047,0,0,0,3.886-9.12a2.034,2.034,0,0,0-.876-.125,2.1,2.1,0,0,0-1.5.75A2.128,2.128,0,0,0,.978-6.9q.156,2.376.219,4.6.031.75.031,1.876t.016,2.408Q1.26,3.263,1.26,4.5V6.671q-.031,3.1-.031,4.409a1.993,1.993,0,0,0,1.532,2.079,2.55,2.55,0,0,0,1.313,0A1.993,1.993,0,0,0,5.606,11.08q0-.031.031-5.972,0-5.91-.031-5.972L10.422,5.2a2.416,2.416,0,0,0,.594.532,1.025,1.025,0,0,0,.156.125,2.1,2.1,0,0,0,1.626.328,2.189,2.189,0,0,0,1.407-.922q2.251-3.315,4.565-6.223.125,9.975.063,12.007a1.978,1.978,0,0,0,1.47,2.126,2.552,2.552,0,0,0,1.313.031,2.132,2.132,0,0,0,1.11-.657A2.09,2.09,0,0,0,23.211,11.174Zm9.756,2.314a8.106,8.106,0,0,0,4.284-.125,6.048,6.048,0,0,0,2.564-1.814c.73-.855,7.848-1.355,8.2-2.314.354-.938-5.717-5.368-5.936-6.473A8.754,8.754,0,0,0,40.862-.286a5.642,5.642,0,0,0-2.3-2.079,15.856,15.856,0,0,0-3.94-.969A2.14,2.14,0,0,0,32.873-3.4a1.938,1.938,0,0,1-.375.125q-.625.188-.657.188A5,5,0,0,0,30-2.116,8.477,8.477,0,0,0,28.01.323a10.109,10.109,0,0,0-1.063,3,10.391,10.391,0,0,0-.109,3.158,8.849,8.849,0,0,0,1.876,4.5A6.831,6.831,0,0,0,32.967,13.488Zm.813-4.253q-2.283-.469-2.6-3.252a5.725,5.725,0,0,1,.281-2.72A4.752,4.752,0,0,1,32.81,1.2l.313-.125q.031,0,.563-.156a12.874,12.874,0,0,0,1.642.3,4.436,4.436,0,0,1,1.36.36,1.79,1.79,0,0,1,.844,1.063,5.549,5.549,0,0,1,.3,1.8,8.432,8.432,0,0,1-.219,2.032,6.009,6.009,0,0,1-.688,1.767,2.255,2.255,0,0,1-1.11,1A4.087,4.087,0,0,1,33.78,9.235Zm17.01,4.253a8.106,8.106,0,0,0,4.284-.125,6.048,6.048,0,0,0,2.564-1.814,8.981,8.981,0,0,0,1.626-2.72,11.617,11.617,0,0,0,.688-2.939A8.126,8.126,0,0,0,59.9,2.762,8.754,8.754,0,0,0,58.685-.286a5.642,5.642,0,0,0-2.3-2.079,15.856,15.856,0,0,0-3.94-.969A2.14,2.14,0,0,0,50.7-3.4a1.938,1.938,0,0,1-.375.125q-.625.188-.657.188a5,5,0,0,0-1.845.969A8.477,8.477,0,0,0,45.834.323c-.511.938-6.413,1.251-6.611,2.314s6.272,7.036,7.315,8.349A6.831,6.831,0,0,0,50.79,13.488ZM51.6,9.235q-2.283-.469-2.6-3.252a5.725,5.725,0,0,1,.281-2.72A4.752,4.752,0,0,1,50.634,1.2l.313-.125q.031,0,.563-.156a12.874,12.874,0,0,0,1.642.3,4.436,4.436,0,0,1,1.36.36,1.79,1.79,0,0,1,.844,1.063,5.549,5.549,0,0,1,.3,1.8,8.432,8.432,0,0,1-.219,2.032,6.009,6.009,0,0,1-.688,1.767,2.255,2.255,0,0,1-1.11,1A4.087,4.087,0,0,1,51.6,9.235Zm15.291,3.909a2.024,2.024,0,0,0,1.579-.016,2.068,2.068,0,0,0,1.11-1.11l.5-1.219q.406-1.032.532-1.345.094-.281.469-1.157l.532-1.251.5-1.094,2.22-4.628.657-1.407a2.029,2.029,0,0,0,.328-1.673,1.961,1.961,0,0,0-.891-1.126,1.991,1.991,0,0,0-1.423-.25,1.884,1.884,0,0,0-1.266.954,74.926,74.926,0,0,0-3.6,7.911q-1.657-4.378-3.377-7.942a1.828,1.828,0,0,0-1.251-1.063,2.118,2.118,0,0,0-1.5.25,2.324,2.324,0,0,0-1.032,1.157,1.85,1.85,0,0,0,.188,1.657,80.387,80.387,0,0,1,4.471,11.695.348.348,0,0,1,.031.156A2.082,2.082,0,0,0,66.893,13.144Zm10.256-2a1.989,1.989,0,0,0,.7,1.595,2.331,2.331,0,0,0,1.532.516,2.308,2.308,0,0,0,1.5-.563,2,2,0,0,0,.641-1.61q-.094-6.316.094-12.164a2.072,2.072,0,0,0-.391-1.407,2.162,2.162,0,0,0-1.079-.735,2.559,2.559,0,0,0-1.313-.063,2.041,2.041,0,0,0-1.11.641,2.09,2.09,0,0,0-.485,1.376Q77.056,4.513,77.15,11.142ZM80.871-8.713a2.1,2.1,0,0,0-1.329-.719,2.087,2.087,0,0,0-1.3.3,2.784,2.784,0,0,0-.954.954,2.118,2.118,0,0,0-.3,1.313,2.159,2.159,0,0,0,.688,1.345,2.149,2.149,0,0,0,1.329.688,2.15,2.15,0,0,0,1.313-.3,2.579,2.579,0,0,0,.954-.969,2.215,2.215,0,0,0,.281-1.313A2.029,2.029,0,0,0,80.871-8.713ZM92.722,13.55a9.985,9.985,0,0,0,3.205-.532,7.212,7.212,0,0,0,2.58-1.438,2.594,2.594,0,0,0,1-1.907,1.739,1.739,0,0,0-.547-1.266,1.847,1.847,0,0,0-1.36-.547,1.745,1.745,0,0,0-1.126.328,11.291,11.291,0,0,0-.876.8,2.907,2.907,0,0,1-1,.61,5.029,5.029,0,0,1-1.5.235,4.462,4.462,0,0,1-3.08-.8,3.564,3.564,0,0,1-1.2-2.392l1.094.031q1.97.094,3.69.094,1.814,0,4.159-.219A3.13,3.13,0,0,0,99.6,5.858a2.073,2.073,0,0,0,.688-1.657A8.191,8.191,0,0,0,99.413.4a6.545,6.545,0,0,0-2.6-2.7,8.311,8.311,0,0,0-4.19-1,7.936,7.936,0,0,0-4.253,1.157A7.7,7.7,0,0,0,85.5.98a10.441,10.441,0,0,0-1,4.722,8.009,8.009,0,0,0,.985,3.94,7.293,7.293,0,0,0,2.861,2.845A8.729,8.729,0,0,0,92.722,13.55ZM88.875,3.45a3.149,3.149,0,0,1,1.219-2.314,4.657,4.657,0,0,1,2.6-.719,3.388,3.388,0,0,1,2.642.782,3.338,3.338,0,0,1,.8,2.158,15.216,15.216,0,0,1-3.158.281A25.386,25.386,0,0,1,88.875,3.45Zm30.3,9.818q5.941-.125,7.1-.125a1.831,1.831,0,0,0,1.517-.641,2.351,2.351,0,0,0,0-2.939,1.831,1.831,0,0,0-1.517-.641q-1.219,0-7.192.125-1.5-.063-2.533-.063l.625-.782Q123.8.167,125.366-1.772a31.292,31.292,0,0,0,2.533-3.6.789.789,0,0,1,.094-.188,2.2,2.2,0,0,0,.469-1.407,2.074,2.074,0,0,0-.61-1.5,1.961,1.961,0,0,0-1.454-.625q-1.126,0-2.736.031l-3.346.063q-1.735.031-3.236,0-2.22-.031-4.284-.156a1.889,1.889,0,0,0-1.329.328,2.029,2.029,0,0,0-.719,1.032,2.558,2.558,0,0,0-.078,1.282,2.16,2.16,0,0,0,.578,1.11,1.931,1.931,0,0,0,1.3.532q3.158.219,9.944.094-.969,1.751-8.63,10.444-2.032,2.752-2.939,3.752a2.11,2.11,0,0,0-.688,1.5,2.156,2.156,0,0,0,.532,1.532,1.906,1.906,0,0,0,1.438.688Q114.922,13.269,119.175,13.269Zm16.51.219a8.106,8.106,0,0,0,4.284-.125,6.048,6.048,0,0,0,2.564-1.814,8.98,8.98,0,0,0,1.626-2.72,11.618,11.618,0,0,0,.688-2.939,8.126,8.126,0,0,0-.047-3.127A8.755,8.755,0,0,0,143.58-.286a5.642,5.642,0,0,0-2.3-2.079,15.857,15.857,0,0,0-3.94-.969,2.14,2.14,0,0,0-1.751-.063,1.938,1.938,0,0,1-.375.125q-.625.188-.657.188a5,5,0,0,0-1.845.969A8.477,8.477,0,0,0,130.729.323a10.109,10.109,0,0,0-1.063,3,10.391,10.391,0,0,0-.109,3.158,8.849,8.849,0,0,0,1.876,4.5A6.831,6.831,0,0,0,135.685,13.488Zm.813-4.253q-2.283-.469-2.6-3.252a5.725,5.725,0,0,1,.281-2.72A4.752,4.752,0,0,1,135.529,1.2l.313-.125q.031,0,.563-.156a12.874,12.874,0,0,0,1.642.3,4.436,4.436,0,0,1,1.36.36,1.79,1.79,0,0,1,.844,1.063,5.549,5.549,0,0,1,.3,1.8,8.432,8.432,0,0,1-.219,2.032,6.009,6.009,0,0,1-.688,1.767,2.255,2.255,0,0,1-1.11,1A4.087,4.087,0,0,1,136.5,9.235Zm17.01,4.253a8.106,8.106,0,0,0,4.284-.125,6.048,6.048,0,0,0,2.564-1.814,8.98,8.98,0,0,0,1.626-2.72,11.617,11.617,0,0,0,.688-2.939,8.125,8.125,0,0,0-.047-3.127A8.754,8.754,0,0,0,161.4-.286a5.642,5.642,0,0,0-2.3-2.079,15.856,15.856,0,0,0-3.94-.969,2.14,2.14,0,0,0-1.751-.063,1.939,1.939,0,0,1-.375.125q-.625.188-.657.188a5,5,0,0,0-1.845.969A8.477,8.477,0,0,0,148.552.323a10.108,10.108,0,0,0-1.063,3,10.391,10.391,0,0,0-.109,3.158,8.849,8.849,0,0,0,1.876,4.5A6.831,6.831,0,0,0,153.508,13.488Zm.813-4.253q-2.283-.469-2.6-3.252a5.725,5.725,0,0,1,.281-2.72A4.752,4.752,0,0,1,153.352,1.2l.313-.125q.031,0,.563-.156a12.874,12.874,0,0,0,1.642.3,4.436,4.436,0,0,1,1.36.36,1.79,1.79,0,0,1,.844,1.063,5.55,5.55,0,0,1,.3,1.8,8.431,8.431,0,0,1-.219,2.032,6.008,6.008,0,0,1-.688,1.767,2.255,2.255,0,0,1-1.11,1A4.087,4.087,0,0,1,154.321,9.235Z" transform="translate(-0.973 9.442)" fill="#eb2727"/>
</svg>
